<svg width="20" height="22" viewBox="0 0 20 22" fill="none" xmlns="http://www.w3.org/2000/svg">
<g clip-path="url(#clip0_4_15385)">
<path d="M8.63168 1.10436L6.79061 0.607952C6.39739 0.499609 5.98738 0.472474 5.58401 0.5281C5.18065 0.583727 4.79184 0.721023 4.43981 0.932139C4.08779 1.14326 3.77945 1.42405 3.53243 1.75848C3.28541 2.0929 3.10455 2.4744 3.00018 2.88115L2.54065 4.6761C4.05607 2.72559 6.23509 1.44782 8.63168 1.10436Z" fill="#0C0A0A"/>
<path d="M0.556132 12.4038L0.105378 14.1624C-0.105326 14.9833 0.00788515 15.8571 0.420111 16.5916C0.832337 17.3261 1.50982 17.8612 2.30353 18.0792L4.05972 18.5635C2.18451 17.0389 0.933571 14.8396 0.556132 12.4038Z" fill="#0C0A0A"/>
<path d="M17.6965 3.60138L15.7267 3.05957C16.7221 3.85137 17.5554 4.83973 18.1785 5.96728C18.8015 7.09483 19.2018 8.33912 19.3561 9.62794L19.8976 7.50911C20.1056 6.68912 19.9907 5.81731 19.5781 5.0848C19.1655 4.35229 18.4888 3.81884 17.6965 3.60138Z" fill="#0C0A0A"/>
<path d="M11.3245 20.5552L13.2124 21.0819C14.0061 21.2998 14.851 21.1827 15.5613 20.7564C16.2716 20.3301 16.7891 19.6295 16.9999 18.8087L17.5326 16.7383C16.0306 18.8071 13.7994 20.1789 11.3245 20.5552Z" fill="#0C0A0A"/>
<path d="M10.0015 1.87305C8.28607 1.87245 6.60902 2.39794 5.18243 3.38307C3.75584 4.3682 2.64379 5.76871 1.98694 7.40747C1.33008 9.04624 1.15791 10.8496 1.49222 12.5896C1.82652 14.3295 2.65228 15.9279 3.86505 17.1825C5.07782 18.4371 6.62313 19.2916 8.30553 19.6379C9.98793 19.9842 11.7319 19.8068 13.3167 19.128C14.9016 18.4493 16.2563 17.2998 17.2094 15.8248C18.1625 14.3498 18.6712 12.6157 18.6712 10.8417C18.6712 8.46362 17.7578 6.18286 16.1321 4.50099C14.5063 2.81912 12.3011 1.87385 10.0015 1.87305ZM5.09002 6.3468C5.18275 5.84956 5.41596 5.39192 5.76017 5.03173C6.10438 4.67154 6.54413 4.42498 7.02382 4.32322C7.50352 4.22146 8.00162 4.26906 8.45516 4.46001C8.90869 4.65096 9.2973 4.97669 9.57185 5.39601C9.84639 5.81534 9.99456 6.30943 9.9976 6.81582C10.0006 7.32221 9.85843 7.81817 9.58895 8.24099C9.31946 8.66381 8.9348 8.9945 8.48359 9.19127C8.03239 9.38804 7.5349 9.44204 7.05402 9.34646C6.73455 9.28295 6.43032 9.15498 6.1587 8.96984C5.88708 8.7847 5.6534 8.54602 5.47101 8.26746C5.28862 7.98889 5.1611 7.67588 5.09573 7.34633C5.03035 7.01678 5.02841 6.67713 5.09002 6.3468ZM8.69312 14.0957C8.59973 14.5927 8.36594 15.05 8.02131 15.4097C7.67667 15.7693 7.23665 16.0153 6.75688 16.1164C6.27711 16.2175 5.77911 16.1693 5.32584 15.9778C4.87258 15.7863 4.48438 15.4601 4.21033 15.0405C3.93628 14.6209 3.78868 14.1267 3.78617 13.6203C3.78367 13.114 3.92638 12.6182 4.19627 12.1958C4.46616 11.7733 4.85111 11.443 5.30246 11.2467C5.75381 11.0504 6.2513 10.9969 6.73205 11.093C7.05155 11.1568 7.35574 11.2851 7.62725 11.4706C7.89876 11.6561 8.13226 11.8951 8.31439 12.174C8.49651 12.4528 8.62371 12.7661 8.68869 13.0958C8.75368 13.4256 8.75518 13.7653 8.69312 14.0957ZM9.7439 12.0222C9.53048 11.9795 9.33406 11.8724 9.17943 11.7144C9.0248 11.5564 8.91887 11.3546 8.87502 11.1344C8.83116 10.9143 8.85134 10.6856 8.93301 10.4772C9.01468 10.2689 9.15418 10.0903 9.33392 9.96382C9.51365 9.83738 9.72557 9.76881 9.94294 9.76677C10.1603 9.76473 10.3734 9.8293 10.5553 9.95235C10.7372 10.0754 10.8799 10.2514 10.9652 10.4582C11.0505 10.6649 11.0747 10.8932 11.0347 11.1142C11.008 11.2616 10.9534 11.4022 10.874 11.5278C10.7946 11.6534 10.6919 11.7615 10.5719 11.8459C10.452 11.9302 10.3171 11.9893 10.175 12.0195C10.0328 12.0498 9.88635 12.0507 9.7439 12.0222ZM14.91 15.3306C14.8173 15.8279 14.5841 16.2855 14.2399 16.6457C13.8956 17.0059 13.4559 17.2524 12.9762 17.3542C12.4965 17.456 11.9984 17.4084 11.5449 17.2174C11.0913 17.0265 10.7027 16.7007 10.4282 16.2814C10.1536 15.8621 10.0055 15.368 10.0024 14.8616C9.99938 14.3552 10.1416 13.8593 10.4111 13.4364C10.6806 13.0136 11.0652 12.6829 11.5164 12.4862C11.9676 12.2894 12.4651 12.2354 12.946 12.331C13.2655 12.3945 13.5697 12.5225 13.8413 12.7076C14.1129 12.8927 14.3466 13.1314 14.529 13.41C14.7114 13.6885 14.8389 14.0015 14.9043 14.3311C14.9697 14.6607 14.9716 15.0003 14.91 15.3306ZM13.2709 10.5845C12.7901 10.4886 12.3475 10.2474 11.9992 9.89142C11.651 9.53547 11.4125 9.0807 11.3141 8.58463C11.2157 8.08856 11.2618 7.57345 11.4464 7.10443C11.6311 6.63541 11.946 6.23354 12.3515 5.94962C12.757 5.6657 13.2348 5.51248 13.7244 5.50933C14.2141 5.50618 14.6937 5.65325 15.1026 5.93194C15.5114 6.21062 15.8312 6.60842 16.0215 7.07503C16.2117 7.54164 16.264 8.05611 16.1715 8.55341C16.1105 8.88405 15.987 9.19899 15.8081 9.48023C15.6292 9.76146 15.3984 10.0035 15.129 10.1924C14.8596 10.3813 14.5568 10.5134 14.238 10.5812C13.9192 10.649 13.5905 10.6512 13.2709 10.5875V10.5845Z" fill="#0C0A0A"/>
</g>
<defs>
<clipPath id="clip0_4_15385">
<rect width="20" height="20.6828" fill="white" transform="translate(0 0.499023)"/>
</clipPath>
</defs>
</svg>
