<svg width="51" height="51" viewBox="0 0 51 51" fill="none" xmlns="http://www.w3.org/2000/svg">
<path d="M45.0408 37.9142C43.5198 37.6362 42.4922 36.8365 42.1143 35.337C42.0413 34.9795 42.0119 34.6145 42.0269 34.2499C42.0269 31.351 42.0269 28.451 42.0269 25.55C42.0269 23.5195 42.867 22.4262 44.8378 21.9013C44.8847 21.9013 44.9284 21.867 44.9721 21.8514C44.6598 13.0234 37.3045 4.10789 26.5167 3.59557C21.3981 3.33572 16.3836 5.1052 12.5613 8.52002C8.73894 11.9348 6.41717 16.7195 6.09979 21.8357C6.181 21.8607 6.27157 21.8951 6.36527 21.917C8.11118 22.3481 9.06066 23.5414 9.06691 25.3532C9.06691 28.3708 9.06691 31.3906 9.06691 34.4124C9.06691 36.7771 7.23042 38.2735 4.89733 37.8486C2.56424 37.4238 0.837068 35.715 0.674657 33.3346C0.532552 30.9864 0.538812 28.6315 0.693397 26.2841C0.793342 24.5722 1.8209 23.3133 3.31695 22.4824C3.43691 22.4305 3.5376 22.3424 3.60483 22.2303C3.67207 22.1182 3.70246 21.9879 3.69174 21.8576C3.934 17.554 5.43861 13.4171 8.01765 9.96363C10.5967 6.5102 14.1359 3.89329 18.1931 2.43975C30.4895 -1.98363 44.0507 5.45739 46.8898 18.2058C47.1211 19.4252 47.291 20.6555 47.3989 21.892C47.3986 22.0115 47.4326 22.1285 47.4968 22.2293C47.561 22.3301 47.6528 22.4103 47.7612 22.4605C48.5995 22.8927 49.2996 23.5518 49.7816 24.3626C50.2637 25.1733 50.5084 26.1032 50.4878 27.0463C50.517 28.9373 50.517 30.8262 50.4878 32.713C50.5052 33.6479 50.2619 34.5692 49.7853 35.3736C49.3087 36.178 48.6175 36.8338 47.7893 37.2676C47.6717 37.3214 47.5736 37.4104 47.5087 37.5223C47.4438 37.6342 47.4153 37.7635 47.427 37.8923C47.427 39.0669 47.4926 40.2602 47.3208 41.4129C47.067 43.1013 46.2185 44.6435 44.9283 45.7615C43.6381 46.8796 41.9911 47.4999 40.2841 47.5107C39.1909 47.5294 38.0978 47.5107 37.0046 47.5107C36.8857 47.4978 36.7659 47.5257 36.6649 47.5898C36.5639 47.654 36.4876 47.7505 36.4487 47.8637C36.1652 48.4873 35.7054 49.0143 35.1259 49.3795C34.5465 49.7448 33.8728 49.9324 33.188 49.9192C31.9605 49.9379 30.7331 49.9192 29.5088 49.9192C28.561 49.925 27.6495 49.5553 26.9736 48.8909C26.2976 48.2265 25.9121 47.3215 25.9014 46.3736C25.8751 45.4427 26.2168 44.5389 26.8523 43.8582C27.4879 43.1776 28.366 42.7749 29.2964 42.7374C30.6675 42.6656 32.048 42.6812 33.4191 42.7374C34.7902 42.7937 35.8334 43.5371 36.4737 44.7898C36.5455 44.9273 36.7017 45.1178 36.8204 45.1178C38.193 45.1627 39.567 45.1356 40.9368 45.0366C43.2043 44.7961 44.969 42.7749 45.0377 40.4914C45.0627 39.6355 45.0408 38.792 45.0408 37.9142ZM44.4162 29.8734V34.3468C44.4162 34.3811 44.4162 34.4155 44.4162 34.4467C44.4349 35.2215 44.8003 35.5557 45.5749 35.512C46.2434 35.4667 46.8714 35.1748 47.337 34.6929C47.8027 34.211 48.0729 33.5734 48.0954 32.9036C48.1422 30.898 48.136 28.8925 48.0954 26.8901C48.0761 26.2371 47.823 25.6127 47.3822 25.1305C46.9414 24.6484 46.3422 24.3405 45.6936 24.263C44.8159 24.1755 44.4162 24.5223 44.413 25.4001C44.4037 26.8808 44.4068 28.3708 44.4068 29.8609L44.4162 29.8734ZM6.69009 29.8953V25.2595C6.66094 24.5702 6.30593 24.2297 5.62505 24.238C4.93833 24.2613 4.28609 24.5446 3.80022 25.0306C3.31435 25.5166 3.0311 26.1689 3.00775 26.8558C2.96402 28.8613 2.96714 30.8668 3.00775 32.8723C3.02737 33.5251 3.28111 34.1491 3.72265 34.6303C4.16418 35.1115 4.76404 35.4178 5.41267 35.4932C6.3028 35.5776 6.68697 35.2433 6.69009 34.3561C6.68384 32.8629 6.68072 31.3729 6.68072 29.8828L6.69009 29.8953ZM31.364 47.5388C31.9886 47.5388 32.5883 47.5388 33.2036 47.5388C33.3664 47.5469 33.5291 47.5216 33.6817 47.4642C33.8342 47.4069 33.9734 47.3188 34.0905 47.2055C34.2077 47.0921 34.3003 46.9559 34.3626 46.8053C34.4249 46.6547 34.4557 46.4929 34.4529 46.3299C34.4593 46.1714 34.4333 46.0132 34.3764 45.8651C34.3196 45.717 34.2331 45.5821 34.1222 45.4686C34.0114 45.3552 33.8786 45.2655 33.7319 45.2052C33.5852 45.1449 33.4278 45.1151 33.2692 45.1178C32.0199 45.0928 30.7779 45.0928 29.5431 45.1178C29.3805 45.112 29.2185 45.14 29.0673 45.2C28.9161 45.26 28.7789 45.3506 28.6644 45.4663C28.55 45.5819 28.4608 45.72 28.4023 45.8719C28.3439 46.0237 28.3176 46.1861 28.325 46.3486C28.3258 46.51 28.359 46.6697 28.4227 46.818C28.4864 46.9663 28.5793 47.1003 28.6959 47.212C28.8125 47.3236 28.9503 47.4106 29.1012 47.4679C29.2522 47.5251 29.4131 47.5513 29.5743 47.545C30.149 47.5357 30.7456 47.5263 31.3421 47.5263L31.364 47.5388Z" fill="white"/>
<path d="M17.9057 33.191C16.9429 33.1818 16.0002 32.9143 15.176 32.4163C14.4193 31.9598 13.7972 31.3107 13.373 30.5353C12.9489 29.7599 12.738 28.8859 12.7617 28.0023C12.7617 24.6379 12.7305 21.2735 12.7617 17.9216C12.796 14.8946 14.948 12.7798 17.9776 12.7735C23.0144 12.761 28.0522 12.761 33.0911 12.7735C36.1113 12.7735 38.2757 14.8821 38.3132 17.9123C38.3569 21.2923 38.3569 24.6723 38.3132 28.0523C38.2695 31.0949 36.0832 33.1817 33.0286 33.1942C31.0235 33.1942 29.0194 33.1942 27.0163 33.1942C26.8713 33.1859 26.7261 33.2096 26.5912 33.2636C26.4563 33.3176 26.3349 33.4005 26.2355 33.5065C24.8581 34.8935 23.4745 36.2774 22.0722 37.6425C21.7584 37.9676 21.3558 38.1928 20.9147 38.29C20.4736 38.3873 20.0136 38.3522 19.5923 38.1892C19.16 38.0593 18.7748 37.8064 18.4837 37.4614C18.1925 37.1164 18.008 36.6942 17.9526 36.2462C17.9098 35.8844 17.8921 35.5201 17.8995 35.1559C17.8995 34.5062 17.9057 33.8533 17.9057 33.191ZM20.2919 35.8494L20.4137 35.915C20.5418 35.7963 20.6729 35.6807 20.7979 35.5558C22.1971 34.1657 23.6088 32.788 24.9862 31.3792C25.1714 31.1808 25.3974 31.0249 25.6487 30.9224C25.9 30.82 26.1705 30.7733 26.4416 30.7857C28.5936 30.8075 30.7455 30.7857 32.9006 30.7857C34.8745 30.7857 35.9426 29.7204 35.9458 27.7493V18.1684C35.9458 16.1941 34.8839 15.1445 32.8975 15.1445H18.1868C16.2004 15.1445 15.1479 16.191 15.1479 18.1715C15.1479 21.3704 15.1479 24.5682 15.1479 27.7649C15.1457 27.9798 15.1562 28.1947 15.1791 28.4084C15.232 28.9836 15.4761 29.5245 15.8724 29.9447C16.2687 30.3648 16.7943 30.64 17.3654 30.7263C17.8409 30.7841 18.3202 30.8061 18.799 30.7919C19.9046 30.7919 20.2982 31.1886 20.3013 32.2851C20.295 33.4722 20.2919 34.6592 20.2919 35.8494Z" fill="white"/>
<path d="M25.5484 21.3921C25.8972 21.3927 26.2379 21.4967 26.5276 21.6908C26.8173 21.885 27.043 22.1607 27.1762 22.4831C27.3094 22.8055 27.3441 23.1601 27.2759 23.5022C27.2077 23.8442 27.0397 24.1584 26.7931 24.4051C26.5465 24.6517 26.2323 24.8198 25.8903 24.888C25.5483 24.9562 25.1938 24.9215 24.8714 24.7883C24.5491 24.6551 24.2735 24.4294 24.0793 24.1396C23.8852 23.8498 23.7813 23.509 23.7806 23.1602C23.7863 22.693 23.9744 22.2466 24.3047 21.9162C24.635 21.5859 25.0813 21.3978 25.5484 21.3921Z" fill="white"/>
<path d="M21.5069 23.1539C21.5057 23.5006 21.4018 23.8392 21.2085 24.1269C21.0151 24.4147 20.7409 24.6387 20.4204 24.7708C20.1 24.9029 19.7476 24.9372 19.4076 24.8692C19.0677 24.8013 18.7556 24.6342 18.5104 24.3891C18.2653 24.1439 18.0983 23.8317 18.0304 23.4917C17.9624 23.1517 17.9967 22.7993 18.1288 22.4787C18.2608 22.1582 18.4848 21.8839 18.7725 21.6906C19.0602 21.4972 19.3987 21.3933 19.7454 21.3921C19.9767 21.3921 20.2058 21.4377 20.4195 21.5262C20.6332 21.6147 20.8274 21.7445 20.991 21.9081C21.1545 22.0717 21.2843 22.266 21.3728 22.4797C21.4613 22.6935 21.5069 22.9226 21.5069 23.1539Z" fill="white"/>
<path d="M33.1005 23.1634C33.0931 23.6311 32.9024 24.0771 32.5694 24.4055C32.2365 24.7339 31.7879 24.9183 31.3202 24.919C30.9715 24.916 30.6315 24.8096 30.3432 24.6134C30.0549 24.4171 29.8311 24.1399 29.7002 23.8166C29.5693 23.4932 29.5372 23.1384 29.6078 22.7968C29.6784 22.4552 29.8486 22.1422 30.0969 21.8973C30.3453 21.6524 30.6606 21.4866 31.0031 21.4208C31.3456 21.3551 31.6999 21.3922 32.0212 21.5277C32.3426 21.6632 32.6166 21.8908 32.8087 22.182C33.0008 22.4731 33.1023 22.8146 33.1005 23.1634Z" fill="white"/>
</svg>
