<svg width="60" height="59" viewBox="0 0 60 59" fill="none" xmlns="http://www.w3.org/2000/svg">
<path d="M51.1528 18.4572H3.74031V19.0505C3.74031 25.0247 3.74031 30.9978 3.74031 36.9698C3.74031 39.2075 5.11035 40.5571 7.37849 40.5571H24.5163C24.711 40.5449 24.9063 40.5449 25.101 40.5571C25.4035 40.5951 25.6816 40.7404 25.8832 40.9658C26.0849 41.1912 26.1962 41.4813 26.1963 41.7818C26.193 42.092 26.0693 42.3893 25.8505 42.6125C25.6318 42.8357 25.3346 42.968 25.0199 42.9822C24.9226 42.9874 24.825 42.9874 24.7276 42.9822C18.8601 42.9822 12.989 42.9822 7.11786 42.9822C5.73194 43.0086 4.38319 42.5396 3.32128 41.662C2.25936 40.7843 1.55617 39.5574 1.34186 38.2083C1.27296 37.7339 1.24468 37.2546 1.25733 36.7755C1.25733 30.5722 1.25733 24.3679 1.25733 18.1623C1.25733 16.8197 1.23268 15.477 1.27494 14.1344C1.31358 12.6771 1.92064 11.2905 2.97004 10.2626C4.01943 9.23465 5.43048 8.64448 6.91007 8.61464C7.43484 8.5973 7.96665 8.61464 8.4879 8.61464C21.5121 8.61464 34.5433 8.61464 47.5816 8.61464C50.1878 8.61464 52.0932 9.72137 53.1498 12.0597C53.49 12.8549 53.6671 13.7086 53.671 14.5715C53.7203 18.6411 53.6957 22.7141 53.6922 26.7837C53.6922 27.7412 53.185 28.2929 52.3714 28.2582C51.6424 28.2304 51.1845 27.6961 51.181 26.8323C51.181 24.2962 51.181 21.7601 51.181 19.2274L51.1528 18.4572ZM51.1528 15.9523C51.1528 15.4389 51.1528 14.9983 51.1528 14.5646C51.1317 12.3893 49.7652 11.0571 47.5569 11.0571H30.2994C22.6168 11.0571 14.9354 11.0571 7.25522 11.0571C6.59801 11.0205 5.94474 11.1787 5.37973 11.5115C4.81473 11.8442 4.36391 12.336 4.08546 12.9236C3.58886 13.895 3.73326 14.9254 3.76848 15.9593L51.1528 15.9523Z" fill="white"/>
<path d="M58.637 44.283C58.6328 46.9556 57.8241 49.5668 56.313 51.7865C54.8019 54.0062 52.6565 55.7345 50.1481 56.7528C47.6396 57.7711 44.881 58.0336 42.2211 57.5072C39.5612 56.9807 37.1195 55.689 35.205 53.7953C33.2906 51.9016 31.9893 49.4912 31.4658 46.8688C30.9423 44.2465 31.2202 41.5301 32.2642 39.0634C33.3082 36.5966 35.0715 34.4903 37.331 33.011C39.5905 31.5316 42.2447 30.7456 44.9578 30.7525C46.7585 30.7538 48.5413 31.1052 50.204 31.7863C51.8667 32.4674 53.3766 33.465 54.6473 34.7219C55.918 35.9788 56.9245 37.4703 57.6091 39.1109C58.2938 40.7516 58.6431 42.5092 58.637 44.283ZM44.9402 33.181C42.7188 33.1776 40.5462 33.8231 38.6973 35.036C36.8484 36.2488 35.406 37.9745 34.5527 39.9949C33.6994 42.0152 33.4735 44.2394 33.9034 46.3863C34.3334 48.5331 35.4 50.5061 36.9682 52.0558C38.5365 53.6056 40.5361 54.6624 42.7141 55.0926C44.8921 55.5229 47.1508 55.3073 49.2044 54.4731C51.258 53.6389 53.0144 52.2235 54.2514 50.406C55.4885 48.5884 56.1506 46.4504 56.1541 44.2622C56.1578 41.3282 54.9787 38.5127 52.8758 36.4348C50.773 34.3569 47.9186 33.1866 44.9402 33.181Z" fill="white"/>
<path d="M12.4677 36.869H7.55812C7.29228 36.8872 7.02778 36.8185 6.80558 36.6736C6.58337 36.5287 6.41585 36.3157 6.32895 36.0676C6.2209 35.8382 6.19695 35.579 6.26117 35.3342C6.32539 35.0894 6.47382 34.8741 6.68115 34.725C6.92827 34.5446 7.22599 34.444 7.53346 34.437C10.8206 34.4162 14.1148 34.4162 17.4161 34.437C17.582 34.429 17.7478 34.4543 17.9035 34.5114C18.0592 34.5685 18.2015 34.6562 18.3217 34.7691C18.4419 34.882 18.5376 35.0178 18.6029 35.1683C18.6682 35.3187 18.7018 35.4807 18.7016 35.6443C18.7015 35.8132 18.6662 35.9802 18.598 36.1351C18.5297 36.29 18.43 36.4294 18.3049 36.5449C18.1798 36.6603 18.032 36.7492 17.8707 36.8062C17.7093 36.8631 17.5378 36.8869 17.3668 36.876C15.7431 36.876 14.1054 36.869 12.4677 36.869Z" fill="white"/>
<path d="M9.96011 28.2546C10.7385 28.2546 11.5203 28.2546 12.2987 28.2546C13.1651 28.2546 13.7075 28.7403 13.7075 29.4689C13.7075 30.1975 13.1792 30.7179 12.2987 30.7248C10.7584 30.7387 9.21815 30.7387 7.67788 30.7248C6.82909 30.7248 6.2691 30.2218 6.2691 29.5105C6.2691 28.7993 6.82909 28.2685 7.70958 28.2546C8.43863 28.2442 9.19937 28.2546 9.96011 28.2546Z" fill="white"/>
<path d="M44.9049 46.2154L48.698 42.4755C49.4729 41.7122 50.2054 41.5942 50.776 42.1285C51.3466 42.6628 51.2515 43.4365 50.459 44.2101L46.0707 48.5434C45.2289 49.3691 44.6161 49.3691 43.7814 48.5434C42.6368 47.4158 41.4851 46.2952 40.351 45.1573C40.2204 45.0468 40.115 44.9104 40.0415 44.757C39.968 44.6037 39.9281 44.4368 39.9245 44.2672C39.9208 44.0977 39.9535 43.9293 40.0203 43.773C40.0871 43.6167 40.1866 43.476 40.3123 43.3601C40.4317 43.2459 40.5731 43.1563 40.7283 43.0967C40.8834 43.0372 41.0491 43.0088 41.2155 43.0133C41.3819 43.0179 41.5458 43.0552 41.6973 43.1231C41.8489 43.191 41.9851 43.2881 42.0979 43.4087C42.2564 43.551 42.4043 43.7036 42.5558 43.8563L44.9049 46.2154Z" fill="white"/>
</svg>
