<svg width="60" height="60" viewBox="0 0 60 60" fill="none" xmlns="http://www.w3.org/2000/svg">
<path d="M13.1149 19.533C10.9939 19.533 9.01077 19.533 7.02762 19.533C6.14033 19.533 5.61361 18.8258 5.96712 18.1186C6.05158 17.9415 6.18672 17.7935 6.35539 17.6934C6.52407 17.5933 6.71867 17.5456 6.9145 17.5563C9.05672 17.5563 11.2025 17.4892 13.3412 17.5917C13.981 17.6235 14.1825 17.4043 14.4724 16.9694C18.6437 10.661 24.4906 6.9446 31.9813 6.00754C44.6261 4.43399 56.2705 13.0585 58.646 25.6292C61.0604 38.4085 52.8026 50.958 40.0412 53.6631C31.4582 55.4842 23.9604 53.2105 17.6468 47.0931C17.0989 46.5627 17.0565 46.0075 17.5019 45.5655C17.9473 45.1235 18.4882 45.1695 19.0361 45.7176C22.139 48.8754 26.1221 51.0235 30.4648 51.881C41.5577 54.144 52.7708 47.4503 56.0796 36.6016C57.6904 31.3329 57.2883 25.6537 54.9513 20.6647C52.6142 15.6757 48.5087 11.7323 43.4305 9.59883C38.3523 7.4654 32.663 7.2939 27.4656 9.11757C22.2682 10.9412 17.9327 14.6302 15.2996 19.4694C14.7269 20.5302 14.2744 21.6829 13.7548 22.7897C13.4013 23.4969 12.8993 23.7586 12.3408 23.4969C11.7822 23.2353 11.6338 22.6589 11.9873 21.9411C12.3408 21.2232 12.7013 20.4029 13.1149 19.533Z" fill="white"/>
<path d="M33.8655 21.98C33.8655 19.3703 33.8655 16.7595 33.8655 14.1476C33.8655 13.3732 34.219 12.9595 34.8482 12.9701C35.0745 12.9557 35.2977 13.0281 35.4725 13.1727C35.6472 13.3172 35.7602 13.523 35.7886 13.748C35.824 13.982 35.8358 14.2189 35.8239 14.4552C35.8239 19.3067 35.8239 24.157 35.8239 29.0061C35.8104 29.1852 35.8425 29.3648 35.9173 29.5281C35.9921 29.6914 36.1072 29.833 36.2516 29.9396C38.2772 31.5556 40.278 33.1928 42.2895 34.823C42.4097 34.922 42.5369 35.0139 42.643 35.12C42.7507 35.2 42.8409 35.3013 42.908 35.4176C42.9751 35.5338 43.0177 35.6626 43.0331 35.796C43.0485 35.9293 43.0365 36.0644 42.9978 36.1929C42.959 36.3215 42.8944 36.4407 42.8078 36.5433C42.7212 36.6458 42.6145 36.7296 42.4944 36.7893C42.3742 36.8491 42.2431 36.8836 42.109 36.8907C41.975 36.8978 41.841 36.8774 41.7151 36.8308C41.5893 36.7841 41.4744 36.7121 41.3774 36.6193C40.5502 35.9722 39.7442 35.3003 38.9277 34.6391C37.4748 33.4616 36.036 32.2699 34.5619 31.103C34.3233 30.9253 34.1333 30.6901 34.0097 30.4194C33.8862 30.1486 33.8329 29.851 33.8549 29.5542C33.8796 27.0436 33.8655 24.5118 33.8655 21.98Z" fill="white"/>
<path d="M11.2696 28.2706H20.0825C20.3543 28.2358 20.6306 28.2661 20.8884 28.359C21.0686 28.4382 21.2194 28.5718 21.3196 28.7412C21.4198 28.9106 21.4643 29.1071 21.447 29.3032C21.4474 29.4998 21.3828 29.691 21.2632 29.8471C21.1436 30.0031 20.9758 30.1152 20.7859 30.166C20.5407 30.2252 20.2887 30.2514 20.0365 30.2437C17.7599 30.2437 15.4799 30.265 13.2033 30.2437C12.6943 30.2437 12.5741 30.3887 12.6306 30.859C12.7155 31.5662 12.7402 32.2522 12.818 32.9488C12.8958 33.6455 12.5705 34.1511 11.9554 34.2395C11.3403 34.3279 10.9586 33.9248 10.8561 33.2247C10.7227 32.3981 10.6577 31.5619 10.6616 30.7247C10.6616 30.3357 10.552 30.2473 10.1773 30.2473C7.62857 30.265 5.07983 30.2473 2.53108 30.2473C2.37553 30.2473 2.21999 30.2473 2.06445 30.2473C1.4034 30.2049 0.979201 29.8194 0.972131 29.2607C0.965061 28.702 1.40694 28.2777 2.10334 28.2742C5.1576 28.2671 8.21303 28.2659 11.2696 28.2706Z" fill="white"/>
<path d="M19.4285 40.8201C17.661 40.8201 15.8935 40.8201 14.1259 40.8201C13.3942 40.8201 12.9912 40.4665 12.9735 39.876C12.9559 39.2855 13.3765 38.8505 14.1153 38.847C17.6504 38.847 21.1854 38.847 24.7204 38.847C25.4592 38.847 25.9188 39.243 25.9223 39.8371C25.9258 40.4312 25.4663 40.8166 24.731 40.8201C22.967 40.8237 21.1995 40.8201 19.4285 40.8201Z" fill="white"/>
<path d="M7.46596 40.8166C7.15488 40.8166 6.8438 40.8166 6.53272 40.8166C6.29682 40.8036 6.07373 40.7051 5.90515 40.5395C5.73656 40.374 5.63403 40.1526 5.6167 39.917C5.59938 39.6813 5.66845 39.4473 5.81101 39.2589C5.95357 39.0704 6.15986 38.9404 6.39132 38.893C7.10243 38.801 7.82242 38.801 8.53354 38.893C8.77816 38.924 9.00106 39.0492 9.15485 39.242C9.30865 39.4348 9.38124 39.68 9.3572 39.9255C9.34025 40.1694 9.23173 40.3979 9.0534 40.5652C8.87507 40.7324 8.64012 40.826 8.39567 40.8272C8.08459 40.8307 7.77351 40.8166 7.46596 40.8166Z" fill="white"/>
<path d="M53.149 29.0698C53.3395 29.0946 53.5186 29.1744 53.6645 29.2993C53.8104 29.4242 53.9168 29.5889 53.9708 29.7732C54.0248 29.9576 54.024 30.1537 53.9685 30.3376C53.913 30.5215 53.8053 30.6853 53.6583 30.809C53.5114 30.9327 53.3317 31.011 53.1411 31.0343C52.9504 31.0576 52.7571 31.025 52.5847 30.9403C52.4123 30.8557 52.2683 30.7227 52.1701 30.5576C52.072 30.3924 52.024 30.2023 52.032 30.0104C52.0402 29.874 52.0761 29.7408 52.1375 29.6187C52.1988 29.4967 52.2843 29.3884 52.3888 29.3004C52.4933 29.2124 52.6146 29.1466 52.7452 29.107C52.8759 29.0673 53.0133 29.0547 53.149 29.0698Z" fill="white"/>
<path d="M35.8239 47.7402C35.837 47.8768 35.8209 48.0145 35.7767 48.1444C35.7326 48.2743 35.6614 48.3933 35.5678 48.4936C35.4742 48.5939 35.3605 48.6731 35.234 48.7261C35.1075 48.7791 34.9712 48.8047 34.8341 48.801C34.2296 48.801 33.8443 48.3484 33.8655 47.6766C33.8584 47.541 33.8798 47.4054 33.9285 47.2786C33.9771 47.1518 34.0519 47.0367 34.1479 46.9406C34.2439 46.8446 34.359 46.7698 34.4857 46.7212C34.6125 46.6725 34.748 46.6511 34.8836 46.6582C35.0178 46.6633 35.1496 46.6959 35.2707 46.7539C35.3918 46.8119 35.4998 46.8942 35.5879 46.9956C35.676 47.097 35.7424 47.2154 35.783 47.3434C35.8236 47.4715 35.8375 47.6066 35.8239 47.7402Z" fill="white"/>
</svg>
