<svg width="58" height="58" viewBox="0 0 58 58" fill="none" xmlns="http://www.w3.org/2000/svg">
<path d="M57.9965 47.1455C57.8674 47.352 57.6819 47.5171 57.4618 47.6213C57.2417 47.7254 56.9964 47.7643 56.7549 47.7333C55.9098 47.702 55.0647 47.7333 54.1639 47.7333C54.0561 49.7052 53.3084 51.3259 51.7016 52.477C50.6562 53.242 49.3734 53.6117 48.0812 53.5204C45.0589 53.343 43.1809 51.385 42.5966 47.775H22.2478C22.2418 48.6741 22.0277 49.5596 21.6223 50.3622C21.2168 51.1647 20.6309 51.8624 19.9107 52.4005C18.8997 53.176 17.6505 53.5757 16.3772 53.5308C13.2714 53.4508 11.3482 51.5033 10.6805 47.7368H7.20261C6.76788 47.7368 6.33663 47.7368 5.9019 47.7368C5.64682 47.7455 5.39268 47.7017 5.15521 47.6082C4.91774 47.5146 4.70201 47.3733 4.52138 47.193C4.34075 47.0127 4.19906 46.7973 4.10511 46.56C4.01115 46.3227 3.96693 46.0686 3.97517 45.8135C3.95778 45.1945 3.97517 44.5754 3.97517 43.8798H1.63806C1.43287 43.8798 1.2242 43.8798 1.01552 43.8798C0.896185 43.8789 0.778205 43.8544 0.668387 43.8077C0.558569 43.761 0.459085 43.693 0.375672 43.6076C0.29226 43.5223 0.226568 43.4212 0.182385 43.3104C0.138202 43.1995 0.116401 43.081 0.118241 42.9617C0.117754 42.8444 0.140735 42.7281 0.18583 42.6198C0.230925 42.5115 0.297224 42.4133 0.380828 42.331C0.464432 42.2487 0.563652 42.1839 0.672651 42.1405C0.78165 42.0971 0.898227 42.076 1.01552 42.0783C3.91605 42.0783 6.81425 42.0783 9.71013 42.0783C9.8289 42.075 9.9471 42.0958 10.0576 42.1394C10.1681 42.183 10.2687 42.2486 10.3532 42.3321C10.4376 42.4156 10.5044 42.5154 10.5492 42.6254C10.5941 42.7354 10.6163 42.8533 10.6144 42.9721C10.6151 43.0955 10.5904 43.2178 10.5419 43.3312C10.4934 43.4447 10.4221 43.5471 10.3325 43.6318C10.2428 43.7166 10.1366 43.7821 10.0206 43.8241C9.90458 43.8662 9.78115 43.884 9.65797 43.8763C8.58679 43.8763 7.51214 43.8763 6.43748 43.8763H5.81147V45.8761C5.95654 45.9003 6.10283 45.9166 6.24968 45.9248C7.69994 45.9248 9.1502 45.9248 10.6005 45.9248C10.7384 45.9471 10.8797 45.9189 10.9985 45.8454C11.1173 45.772 11.2056 45.6582 11.2473 45.5248C12.2907 43.3095 14.0296 42.0783 16.4954 42.0783C18.9612 42.0783 20.7036 43.2955 21.7539 45.5109C21.8791 45.7718 21.9834 45.9248 22.3208 45.9248C28.3862 45.9109 34.4527 45.9109 40.5203 45.9248C40.5893 45.918 40.6577 45.9076 40.7255 45.8935V45.3197C40.7255 43.3025 40.7255 41.2854 40.7255 39.2717C40.7255 38.5761 41.1046 38.1831 41.6959 38.2283C42.2314 38.2596 42.5305 38.6318 42.534 39.2925C42.534 41.2714 42.534 43.2503 42.534 45.2292V45.8309C42.9409 46.0917 43.0174 45.7996 43.1426 45.5388C44.2277 43.2886 46.0153 42.0609 48.5194 42.1026C50.8982 42.1409 52.6128 43.3477 53.6318 45.4935C53.6745 45.6399 53.768 45.7662 53.8955 45.8497C54.023 45.9332 54.1762 45.9685 54.3274 45.9491C54.9221 45.9178 55.5238 45.9491 56.1498 45.9491V41.9357C55.802 41.9357 55.4542 41.9357 55.1308 41.9357C54.3872 41.9302 53.6758 41.6317 53.151 41.1049C52.6262 40.5782 52.3304 39.8657 52.3276 39.1221C52.3276 38.5379 52.3276 37.9536 52.3276 37.3832C52.3276 36.5868 52.6267 36.2877 53.4127 36.2807C54.2544 36.2807 55.096 36.2807 55.9446 36.2807C55.7846 35.3104 54.8282 34.4444 53.7744 34.274C53.5329 34.2352 53.2887 34.2154 53.0441 34.2149H42.9827C42.854 34.2149 42.7253 34.2358 42.5201 34.2497C42.5201 34.5801 42.5201 34.8931 42.5201 35.2061C42.5257 35.3239 42.508 35.4418 42.468 35.5528C42.4281 35.6638 42.3666 35.7658 42.2871 35.8531C42.2076 35.9403 42.1117 36.011 42.0049 36.0611C41.8981 36.1112 41.7824 36.1397 41.6646 36.1451C41.5418 36.1493 41.4195 36.1287 41.3049 36.0847C41.1903 36.0406 41.0857 35.9739 40.9975 35.8885C40.9092 35.8032 40.839 35.7009 40.7911 35.5878C40.7432 35.4748 40.7185 35.3532 40.7186 35.2304C40.7186 35.06 40.7186 34.8826 40.7186 34.7227V18.7767H5.78365V34.7296C5.79585 34.9358 5.79585 35.1425 5.78365 35.3487C5.76762 35.5516 5.67768 35.7416 5.53088 35.8826C5.38408 36.0237 5.19063 36.1059 4.98722 36.1138C4.7889 36.1488 4.58463 36.1087 4.41425 36.0014C4.24387 35.894 4.11957 35.727 4.06559 35.533C4.00204 35.2974 3.97506 35.0534 3.9856 34.8096C3.9856 29.5928 3.9856 24.3761 3.9856 19.1593C3.9856 17.6325 4.68117 16.937 6.18012 16.9335H18.2378L18.2622 16.8396C18.123 16.7735 17.9874 16.6935 17.8413 16.6379C15.5877 15.7336 13.3201 14.8433 11.0908 13.9217C10.7787 13.8118 10.5184 13.59 10.3605 13.2991C10.3267 13.1407 10.3263 12.9769 10.3592 12.8182C10.3922 12.6596 10.4577 12.5095 10.5518 12.3775C10.8022 12.0123 11.223 12.0297 11.6264 12.1967C13.2981 12.8737 14.9721 13.5438 16.6484 14.2069C16.8738 14.3106 17.1171 14.3696 17.3649 14.3808C17.191 14.2625 17.0171 14.1512 16.8432 14.033C15.7998 13.2226 14.6591 12.4784 13.6888 11.5707C12.402 10.3708 12.082 8.81968 12.6698 7.16423C12.9022 6.41908 13.3511 5.75994 13.9592 5.27068C14.5674 4.78141 15.3074 4.48415 16.085 4.41673C17.8831 4.19762 19.4098 4.8445 20.2237 6.45127C21.2183 8.42668 21.9626 10.5238 22.8146 12.5723C22.9677 12.9201 23.0755 13.3165 23.2424 13.8139C23.3607 13.4974 23.4337 13.2783 23.5207 13.0696C24.3866 10.9273 25.1135 8.71187 26.1569 6.65994C26.4783 6.01535 26.9612 5.46494 27.5584 5.06225C28.1556 4.65956 28.8469 4.41829 29.565 4.36192C30.2831 4.30555 31.0035 4.436 31.6563 4.74057C32.309 5.04515 32.8718 5.51348 33.2899 6.10001C33.8916 6.89929 34.1812 7.89056 34.1043 8.88805C34.0275 9.88554 33.5896 10.8208 32.8726 11.5185C31.9129 12.3663 30.91 13.1638 29.8677 13.9078C29.6161 14.0778 29.383 14.2736 29.1721 14.492L30.4624 13.9878C31.9475 13.3965 33.429 12.7914 34.9175 12.2106C35.6131 11.9393 36.26 12.3497 36.2391 13.0209C36.2391 13.5287 35.8913 13.7687 35.4531 13.9425C33.2169 14.8294 30.9841 15.7302 28.7513 16.6274C28.5705 16.6854 28.4116 16.797 28.2957 16.9474H40.3778C41.828 16.9474 42.5201 17.643 42.5236 19.0932C42.5236 19.6358 42.5236 20.1783 42.5236 20.8078H43.16C45.1737 20.8078 47.1909 20.8078 49.208 20.8078C51.5382 20.8078 53.1414 22.4076 53.1554 24.7447C53.1554 25.4055 53.3432 26.1533 52.4598 26.4836C52.9328 28.3895 53.3953 30.2675 53.8822 32.1386C53.911 32.2186 53.9571 32.2913 54.0172 32.3514C54.0774 32.4115 54.15 32.4576 54.23 32.4864C55.1561 32.6865 56.0019 33.1568 56.6606 33.8378C57.3193 34.5188 57.7612 35.3798 57.9304 36.312C57.9304 36.3433 57.9756 36.3677 58 36.3955L57.9965 47.1455ZM52.0564 32.3403C51.5868 30.4727 51.1278 28.6921 50.7035 26.9045C50.6131 26.5289 50.46 26.435 50.0949 26.4384C47.723 26.4384 45.3511 26.4384 42.9792 26.4384C42.8394 26.4449 42.7001 26.4589 42.5618 26.4802V32.3403H52.0564ZM48.3142 51.7119C49.0902 51.7249 49.8527 51.5074 50.5051 51.0869C51.1575 50.6665 51.6705 50.0619 51.9792 49.3498C52.2879 48.6377 52.3784 47.85 52.2393 47.0864C52.1002 46.3228 51.7377 45.6177 51.1978 45.0601C50.6578 44.5026 49.9645 44.1178 49.2058 43.9544C48.447 43.791 47.6569 43.8563 46.9352 44.1421C46.2136 44.4279 45.593 44.9214 45.1519 45.56C44.7108 46.1986 44.4691 46.9537 44.4573 47.7298C44.446 48.7678 44.8448 49.7682 45.567 50.5138C46.2892 51.2595 47.2764 51.69 48.3142 51.7119ZM16.4154 51.7119C17.1893 51.7247 17.9497 51.5082 18.6009 51.0897C19.2521 50.6712 19.7649 50.0695 20.0748 49.3602C20.3847 48.6509 20.4779 47.8658 20.3426 47.1037C20.2073 46.3416 19.8496 45.6365 19.3145 45.0773C18.7793 44.518 18.0907 44.1296 17.3353 43.9608C16.5799 43.7921 15.7914 43.8505 15.0692 44.1289C14.3469 44.4073 13.7232 44.8931 13.2764 45.5252C12.8297 46.1572 12.5799 46.9074 12.5585 47.6811C12.5442 48.1998 12.6329 48.7161 12.8195 49.2003C13.0061 49.6844 13.2868 50.1267 13.6455 50.5016C14.0043 50.8765 14.4338 51.1765 14.9092 51.3843C15.3847 51.592 15.8966 51.7034 16.4154 51.7119ZM24.7901 14.8816C25.03 14.7668 25.1378 14.7285 25.2178 14.6729C26.6959 13.7339 28.1844 12.8157 29.6347 11.8384C30.3419 11.3714 31.0003 10.8343 31.5997 10.2352C31.8661 9.96302 32.0634 9.63097 32.175 9.26685C32.2866 8.90274 32.3093 8.51717 32.2412 8.14248C32.173 7.76778 32.0161 7.41488 31.7834 7.11336C31.5508 6.81184 31.2493 6.57049 30.9041 6.40953C30.3644 6.14447 29.7435 6.09663 29.1695 6.27588C28.5956 6.45513 28.1122 6.84779 27.8193 7.3729C27.3229 8.2585 26.8916 9.17908 26.529 10.1273C25.9308 11.6437 25.3987 13.2122 24.7901 14.8816ZM21.5209 14.8085L21.6565 14.7181C21.1105 13.2018 20.6132 11.6715 20.0011 10.176C19.6144 9.15954 19.1493 8.17466 18.6099 7.2303C18.0813 6.33302 17.1771 6.03393 16.1754 6.22869C15.7329 6.29655 15.3211 6.49606 14.9936 6.80125C14.6661 7.10644 14.438 7.50317 14.3391 7.93978C14.2069 8.40657 14.2189 8.90243 14.3734 9.36232C14.5279 9.82221 14.8178 10.2246 15.2051 10.5169C17.1214 12.2001 19.3333 13.4869 21.5209 14.8085ZM42.5479 24.623H51.3051C51.3219 24.3574 51.2827 24.0913 51.1902 23.8419C51.0977 23.5924 50.9539 23.3651 50.768 23.1747C50.5822 22.9842 50.3585 22.8349 50.1113 22.7363C49.8642 22.6378 49.5991 22.5921 49.3332 22.6024C47.3195 22.6024 45.3093 22.6024 43.2957 22.6024H42.5479V24.623ZM54.2022 38.0996C53.9205 39.7899 54.5952 40.4507 56.1393 40.0438V38.0753H54.463C54.3726 38.0753 54.2857 38.0927 54.2057 38.0996H54.2022Z" fill="white"/>
<path d="M21.7052 30.7823C22.1226 31.4118 22.5329 32.0169 22.9329 32.629C23.3329 33.2411 23.2459 33.7524 22.7555 34.0549C22.2652 34.3575 21.7956 34.1766 21.42 33.6237C21.0444 33.0707 20.6132 32.4829 20.2689 31.8848C20.1837 31.6765 20.0291 31.5042 19.8313 31.3971C19.6335 31.2899 19.4047 31.2546 19.1838 31.297C18.907 31.3146 18.6294 31.3146 18.3526 31.297C18.3526 31.9439 18.3526 32.5212 18.3526 33.102C18.3526 33.7976 18.0048 34.1732 17.4623 34.1732C16.9197 34.1732 16.5476 33.7906 16.5476 33.1298C16.5476 30.6605 16.5476 28.1924 16.5476 25.7255C16.5476 24.9847 16.8954 24.6821 17.6327 24.6578C18.37 24.6334 19.0238 24.6578 19.7194 24.6578C20.4211 24.6224 21.1161 24.8102 21.7044 25.1943C22.2928 25.5784 22.7444 26.1391 22.9943 26.7958C23.2442 27.4525 23.2797 28.1714 23.0956 28.8496C22.9115 29.5277 22.5173 30.13 21.9695 30.5701L21.7052 30.7823ZM18.3943 29.4711C18.9481 29.5008 19.503 29.5008 20.0567 29.4711C20.4168 29.4342 20.7504 29.2651 20.9932 28.9967C21.2359 28.7282 21.3707 28.3793 21.3713 28.0174C21.3891 27.6654 21.2771 27.3191 21.0566 27.0441C20.8361 26.7691 20.5224 26.5845 20.175 26.5254C19.5821 26.4854 18.9872 26.4854 18.3943 26.5254V29.4711Z" fill="white"/>
<path d="M26.1325 26.5464V28.5149C26.7585 28.5149 27.388 28.5149 28.021 28.5149C28.2209 28.5004 28.4198 28.5541 28.5852 28.6671C28.7507 28.7802 28.873 28.9459 28.9322 29.1374C29.0057 29.3147 29.0139 29.5124 28.9553 29.6952C28.8967 29.878 28.7751 30.034 28.6122 30.1355C28.399 30.2521 28.1597 30.3131 27.9167 30.3129C27.3359 30.3372 26.7551 30.3129 26.136 30.3129V32.3787H28.3862C28.6298 32.3706 28.8736 32.3764 29.1165 32.3961C29.3447 32.4121 29.5582 32.5145 29.7133 32.6826C29.8684 32.8507 29.9535 33.0717 29.9512 33.3004C29.9494 33.5298 29.8577 33.7494 29.6958 33.9119C29.5339 34.0745 29.3146 34.1671 29.0852 34.1698C28.4279 34.2011 27.7671 34.1698 27.1098 34.1698C26.5081 34.1698 25.903 34.1698 25.3013 34.1698C24.6058 34.1698 24.2893 33.8394 24.2858 33.1647C24.2858 30.656 24.2858 28.1508 24.2858 25.6491C24.2663 25.5118 24.2788 25.3719 24.3225 25.2402C24.3662 25.1086 24.4398 24.9889 24.5375 24.8905C24.6352 24.7921 24.7544 24.7177 24.8857 24.6731C25.0171 24.6285 25.1569 24.615 25.2944 24.6336C26.5186 24.6336 27.7428 24.6336 28.967 24.6336C29.0919 24.6226 29.2178 24.6377 29.3366 24.678C29.4553 24.7183 29.5644 24.7828 29.6569 24.8675C29.7494 24.9522 29.8233 25.0553 29.8738 25.1701C29.9243 25.2849 29.9504 25.4089 29.9504 25.5343C29.9504 25.6598 29.9243 25.7838 29.8738 25.8986C29.8233 26.0134 29.7494 26.1164 29.6569 26.2012C29.5644 26.2859 29.4553 26.3504 29.3366 26.3907C29.2178 26.431 29.0919 26.4461 28.967 26.4351C28.0453 26.4351 27.1237 26.4351 26.1847 26.4629C26.2021 26.4838 26.1743 26.5047 26.1325 26.5464Z" fill="white"/>
<path d="M32.9004 26.4592V28.4833C33.6586 28.5946 34.7854 28.2364 34.7576 29.4641C34.7332 30.6222 33.6481 30.2292 32.9143 30.3509V32.3855H35.161C35.4057 32.3774 35.6507 32.3832 35.8948 32.4029C36.1221 32.4212 36.3341 32.5244 36.4888 32.692C36.6434 32.8595 36.7294 33.0791 36.7295 33.3071C36.7268 33.5363 36.6348 33.7553 36.4731 33.9177C36.3114 34.0801 36.0927 34.173 35.8635 34.1766C35.2062 34.2079 34.5454 34.1766 33.8881 34.1766C33.2308 34.1766 32.643 34.1766 32.024 34.1766C31.4049 34.1766 31.0676 33.8288 31.0641 33.2375C31.0641 30.6871 31.0641 28.146 31.0641 25.6141C31.0641 24.9742 31.4119 24.6508 32.0587 24.6438C33.2829 24.6438 34.4932 24.6438 35.7279 24.6438C35.8553 24.6332 35.9836 24.6492 36.1046 24.6907C36.2256 24.7322 36.3367 24.7984 36.4308 24.885C36.5249 24.9716 36.6001 25.0768 36.6515 25.1939C36.7029 25.311 36.7295 25.4375 36.7295 25.5654C36.7295 26.0871 36.3156 26.4418 35.6861 26.4488C34.7784 26.4662 33.8533 26.4592 32.9004 26.4592Z" fill="white"/>
<path d="M11.6264 26.4594V28.5148C12.2107 28.5148 12.788 28.5148 13.3654 28.5148C14.0853 28.5148 14.4817 28.8626 14.4817 29.426C14.4817 29.9894 14.0922 30.3163 13.3619 30.3198C12.8019 30.3198 12.2385 30.3198 11.623 30.3198C11.623 30.5772 11.5951 30.7789 11.5951 30.9806C11.5951 31.7527 11.5951 32.5248 11.5951 33.2934C11.5985 33.4123 11.5775 33.5306 11.5334 33.641C11.4892 33.7515 11.4229 33.8517 11.3384 33.9355C11.254 34.0193 11.1533 34.0848 11.0425 34.1281C10.9317 34.1714 10.8132 34.1915 10.6944 34.1872C10.5755 34.1917 10.457 34.1714 10.3464 34.1275C10.2359 34.0837 10.1356 34.0173 10.0522 33.9325C9.96873 33.8477 9.90387 33.7465 9.86174 33.6353C9.81962 33.524 9.80115 33.4052 9.80752 33.2864C9.79361 30.7059 9.79361 28.1265 9.80752 25.5482C9.80105 25.4241 9.82179 25.3001 9.8683 25.1849C9.9148 25.0697 9.98594 24.9661 10.0767 24.8812C10.1675 24.7964 10.2758 24.7325 10.3939 24.6939C10.512 24.6553 10.6371 24.643 10.7605 24.6579C12.0055 24.644 13.2483 24.644 14.4887 24.6579C14.6137 24.6482 14.7394 24.6646 14.8577 24.706C14.976 24.7475 15.0845 24.8131 15.1761 24.8987C15.2677 24.9843 15.3405 25.088 15.3899 25.2033C15.4393 25.3185 15.4642 25.4428 15.463 25.5681C15.4617 25.6935 15.4345 25.8173 15.3829 25.9316C15.3313 26.0458 15.2565 26.1481 15.1632 26.2319C15.07 26.3158 14.9603 26.3793 14.8412 26.4184C14.7221 26.4576 14.5961 26.4715 14.4713 26.4594C13.5253 26.4664 12.5898 26.4594 11.6264 26.4594Z" fill="white"/>
<path d="M31.0328 42.0576C33.2204 42.0576 35.4045 42.0576 37.592 42.0576C38.2702 42.0576 38.698 42.4541 38.6562 43.0175C38.6467 43.1402 38.6126 43.2597 38.556 43.3689C38.4994 43.4781 38.4214 43.5749 38.3267 43.6534C38.232 43.7319 38.1224 43.7906 38.0046 43.8259C37.8868 43.8613 37.763 43.8726 37.6407 43.8591C36.6252 43.8591 35.6062 43.8591 34.5872 43.8591C31.2345 43.8591 27.8807 43.8591 24.5258 43.8591C24.3018 43.8697 24.0778 43.839 23.865 43.7687C23.6737 43.7047 23.5133 43.5714 23.4155 43.395C23.3176 43.2186 23.2894 43.012 23.3363 42.8158C23.3666 42.5997 23.478 42.4033 23.6479 42.2663C23.8178 42.1294 24.0334 42.0622 24.251 42.0785C25.5309 42.0785 26.8142 42.0785 28.0766 42.0785L31.0328 42.0576Z" fill="white"/>
<path d="M8.78157 38.1935C10.6248 38.1935 12.4716 38.1935 14.3148 38.1935C15.0347 38.1935 15.4521 38.5204 15.459 39.0769C15.466 39.6334 15.0208 40.002 14.287 40.0055C10.5982 40.0055 6.90817 40.0055 3.21702 40.0055C2.41712 40.0055 1.91283 39.5255 2.06933 38.91C2.20497 38.3639 2.59796 38.1831 3.13355 38.1866C5.01506 38.2005 6.89658 38.1935 8.78157 38.1935Z" fill="white"/>
<path d="M48.3768 49.6534C48.1316 49.6538 47.8888 49.6057 47.6623 49.5116C47.4359 49.4176 47.2303 49.2796 47.0576 49.1055C46.8849 48.9315 46.7484 48.725 46.6561 48.4978C46.5637 48.2707 46.5173 48.0275 46.5196 47.7823C46.5212 47.5366 46.5712 47.2936 46.6667 47.0672C46.7622 46.8408 46.9014 46.6354 47.0763 46.4628C47.2512 46.2902 47.4583 46.1537 47.6859 46.0612C47.9136 45.9686 48.1572 45.9218 48.4029 45.9234C48.6486 45.925 48.8916 45.975 49.118 46.0705C49.3444 46.166 49.5498 46.3051 49.7224 46.48C49.895 46.6549 50.0315 46.8621 50.124 47.0897C50.2166 47.3173 50.2634 47.5609 50.2618 47.8066C50.2605 48.052 50.2105 48.2947 50.1148 48.5206C50.0191 48.7466 49.8796 48.9513 49.7043 49.123C49.5291 49.2947 49.3215 49.43 49.0937 49.521C48.8658 49.6121 48.6222 49.657 48.3768 49.6534Z" fill="white"/>
<path d="M18.3456 47.8067C18.3476 48.0527 18.3 48.2966 18.2057 48.5238C18.1114 48.751 17.9723 48.9569 17.7967 49.1293C17.6211 49.3016 17.4127 49.4368 17.1837 49.5269C16.9548 49.6169 16.71 49.66 16.4641 49.6534C16.2187 49.6534 15.9758 49.605 15.7491 49.5109C15.5225 49.4167 15.3167 49.2788 15.1435 49.105C14.9703 48.9311 14.8332 48.7248 14.7399 48.4978C14.6466 48.2709 14.5991 48.0277 14.6 47.7823C14.6082 47.2832 14.8115 46.8071 15.1664 46.4561C15.5214 46.105 15.9997 45.907 16.4989 45.9043C16.7456 45.9061 16.9895 45.9569 17.2164 46.0538C17.4433 46.1508 17.6486 46.2919 17.8205 46.4689C17.9924 46.6459 18.1273 46.8554 18.2174 47.085C18.3076 47.3147 18.3512 47.56 18.3456 47.8067Z" fill="white"/>
</svg>
