<svg width="20" height="22" viewBox="0 0 20 22" fill="none" xmlns="http://www.w3.org/2000/svg">
  <path d="M19.166 6.166c-.225-1.675-.883-2.98-2.058-4.158C15.93.883 14.625.225 12.95 0 11.225-.225 8.775-.225 7.05 0 5.375.225 4.07.883 2.892 2.008 1.717 3.183 1.059 4.488.834 6.163.609 7.888.609 10.338.834 12.063c.225 1.675.883 2.98 2.058 4.158 1.178 1.125 2.483 1.783 4.158 2.008 1.725.225 4.175.225 5.9 0 1.675-.225 2.98-.883 4.158-2.008 1.175-1.178 1.833-2.483 2.058-4.158.225-1.725.225-4.175 0-5.9zM10 15.417A5.417 5.417 0 1 1 10 4.583a5.417 5.417 0 0 1 0 10.834zm6.25-9.167a1.25 1.25 0 1 1-2.5 0 1.25 1.25 0 0 1 2.5 0z" fill="#000"/>
  <circle cx="10" cy="10.833" r="3.333" fill="#000"/>
</svg>
