<svg width="38" height="28" viewBox="0 0 38 28" fill="none" xmlns="http://www.w3.org/2000/svg">
<path d="M27.4727 21.9L20.752 21.9C20.6648 21.9 20.5956 21.865 20.5518 21.818C20.5108 21.774 20.4825 21.7096 20.4932 21.6188L20.4961 21.5895L20.4961 15.1979C20.5757 13.3402 21.0958 9.99688 24.5264 7.2594L26.5674 9.53772C26.526 9.57049 26.4725 9.61401 26.4111 9.66663C26.2839 9.77573 26.113 9.92919 25.9268 10.11C25.5623 10.4637 25.1088 10.9516 24.8096 11.4381L24.8086 11.4371C24.3039 12.2387 23.9248 13.1933 23.8926 14.0944L23.874 14.6119L27.4727 14.6119C27.6443 14.6122 27.7842 14.7527 27.7842 14.9244L27.7842 21.5885L27.7773 21.651C27.7481 21.7927 27.6227 21.8998 27.4727 21.9Z" stroke="#D5AE7D"/>
<path d="M17.4727 21.9L10.752 21.9C10.6648 21.9 10.5956 21.865 10.5518 21.818C10.5108 21.774 10.4825 21.7096 10.4932 21.6188L10.4961 21.5895L10.4961 15.1979C10.5757 13.3402 11.0958 9.99688 14.5264 7.2594L16.5674 9.53772C16.526 9.57049 16.4725 9.61401 16.4111 9.66663C16.2839 9.77573 16.113 9.92919 15.9268 10.11C15.5623 10.4637 15.1088 10.9516 14.8096 11.4381L14.8086 11.4371C14.3039 12.2387 13.9248 13.1933 13.8926 14.0944L13.874 14.6119L17.4727 14.6119C17.6443 14.6122 17.7842 14.7527 17.7842 14.9244L17.7842 21.5885L17.7773 21.651C17.7481 21.7927 17.6227 21.8998 17.4727 21.9Z" stroke="#D5AE7D"/>
</svg>
