<svg width="90" height="90" viewBox="0 0 90 90" fill="none" xmlns="http://www.w3.org/2000/svg">
<path d="M0 36.6696C0.591257 36.4839 1.17493 36.1465 1.76619 36.1352C4.71111 36.0783 7.65982 36.1048 10.6085 36.1124C11.7456 36.1124 12.333 36.6165 12.3179 37.5223C12.3027 38.4282 11.7152 38.9057 10.6502 38.9133C7.61813 38.9133 4.58604 38.9474 1.55395 38.8868C1.0347 38.8868 0.523035 38.4699 0.00758004 38.2463L0 36.6696Z" fill="white"/>
<path d="M67.5095 33.5427C70.8713 33.5427 74.0891 33.573 77.2994 33.5427C78.1046 33.4863 78.9082 33.6729 79.6062 34.0784C80.3042 34.4838 80.8645 35.0894 81.2146 35.8167C83.572 40.1185 85.9749 44.3975 88.3779 48.6766C89.2391 50.1743 89.6816 51.8762 89.6589 53.6037C89.6286 55.9725 89.6589 58.3414 89.6589 60.7102C89.6589 62.5294 88.7114 63.5755 86.9187 63.4618C85.433 63.3671 84.6446 63.6627 84.0382 65.2659C82.9618 68.1994 79.7933 69.9694 76.7763 69.7761C75.2026 69.7019 73.6895 69.1464 72.4416 68.1846C71.1937 67.2227 70.2712 65.901 69.7987 64.398C69.7116 64.1213 69.6282 63.8484 69.5183 63.4921H65.0497C58.3829 63.4921 51.7161 63.4921 45.0493 63.4921C44.4012 63.4921 44.098 63.621 43.9123 64.3032C43.45 65.8882 42.487 67.281 41.1673 68.2731C39.8476 69.2653 38.2422 69.8035 36.5912 69.8074C34.9401 69.8112 33.3322 69.2804 32.0079 68.2944C30.6837 67.3084 29.7142 65.9202 29.2445 64.3373C29.0475 63.6816 28.7935 63.4845 28.1075 63.4921C24.5145 63.5262 20.9063 63.5111 17.3208 63.4921C15.8958 63.4921 15.4258 63.0335 15.4258 61.5971C15.4258 58.6749 15.4258 55.7527 15.4258 52.7206C15.0809 52.7206 14.7739 52.6751 14.4669 52.6751H5.17733C4.88505 52.6885 4.59217 52.6771 4.30182 52.641C3.99052 52.6033 3.70354 52.4538 3.49435 52.2202C3.28516 51.9866 3.16803 51.6849 3.16478 51.3713C3.12825 51.0758 3.1977 50.7769 3.36078 50.5278C3.52386 50.2787 3.77001 50.0954 4.05546 50.0107C4.42459 49.904 4.80859 49.8579 5.19249 49.8743C10.7185 49.8743 16.2445 49.8743 21.7704 49.8743C21.9749 49.8628 22.1799 49.8628 22.3844 49.8743C23.241 49.969 23.7754 50.5186 23.7716 51.288C23.7678 52.0574 23.1993 52.641 22.2821 52.6562C20.9707 52.6789 19.6631 52.6562 18.3025 52.6562V60.6571C18.5034 60.6571 18.6815 60.6912 18.8407 60.6912C21.9978 60.6912 25.155 60.6912 28.316 60.6912C28.413 60.7102 28.5128 60.7088 28.6093 60.6873C28.7057 60.6658 28.7967 60.6245 28.8764 60.5662C28.9562 60.5078 29.023 60.4335 29.0726 60.3481C29.1223 60.2626 29.1537 60.1678 29.165 60.0697C30.1807 56.5941 33.1142 54.3845 36.6049 54.3845C40.0956 54.3845 42.9572 56.6131 43.9843 60.0431C44.1094 60.4525 44.2079 60.695 44.7158 60.695C51.2651 60.6723 57.8144 60.6761 64.3637 60.6723C64.4527 60.6587 64.5402 60.6372 64.6252 60.6078V24.0446H18.2987V28.3464H19.2197C21.5279 28.3464 23.8398 28.3464 26.148 28.3464C27.2851 28.3464 27.8991 28.8695 27.8991 29.7412C27.8991 30.6129 27.2585 31.1435 26.1442 31.1435C20.6789 31.1435 15.2123 31.1435 9.74442 31.1435C9.59928 31.153 9.45369 31.153 9.30855 31.1435C8.95345 31.1272 8.6179 30.9763 8.37008 30.7214C8.12227 30.4666 7.9808 30.1269 7.97443 29.7715C7.96867 29.5876 8.00059 29.4045 8.06821 29.2333C8.13583 29.0622 8.23774 28.9068 8.36767 28.7765C8.49759 28.6462 8.65279 28.5439 8.82372 28.4758C8.99465 28.4077 9.1777 28.3753 9.36161 28.3805C10.9989 28.3388 12.6363 28.3616 14.2888 28.3578H15.4485C15.4485 26.9441 15.4485 25.6137 15.4485 24.2834C15.4485 22.1003 16.3544 21.1831 18.5261 21.1831C33.8205 21.1831 49.1073 21.1831 64.3865 21.1831C66.5961 21.1831 67.5095 22.1117 67.5095 24.3478C67.5095 27.0666 67.5095 29.7854 67.5095 32.5042V33.5427ZM86.8391 60.6458C86.8391 58.2314 86.93 55.8664 86.8012 53.5128C86.7544 52.353 86.4625 51.2162 85.9446 50.1775C83.6023 45.7999 81.1463 41.4905 78.7434 37.1584C78.6224 36.8958 78.4229 36.6771 78.1724 36.5325C77.922 36.388 77.6328 36.3246 77.3449 36.3511C74.3128 36.3777 71.3186 36.3511 68.3092 36.3511C68.0818 36.3511 67.8544 36.3777 67.6118 36.3928V60.6495C69.3667 60.7405 69.3667 60.7405 69.9883 59.1903C70.5596 57.7708 71.5418 56.5542 72.809 55.6965C74.0762 54.8388 75.5707 54.3791 77.1009 54.3762C78.6311 54.3734 80.1273 54.8275 81.3977 55.6805C82.6681 56.5335 83.6549 57.7464 84.2315 59.1638C84.8796 60.7708 84.8796 60.7708 86.8467 60.6571L86.8391 60.6458ZM41.407 62.1163C41.4176 61.4718 41.2995 60.8316 41.0597 60.2333C40.8199 59.6349 40.4631 59.0904 40.0103 58.6316C39.5575 58.1728 39.0178 57.8089 38.4226 57.5612C37.8275 57.3136 37.1889 57.1871 36.5443 57.1892C35.9022 57.1907 35.2668 57.3186 34.6741 57.5657C34.0815 57.8128 33.5434 58.1742 33.0904 58.6292C32.6375 59.0843 32.2786 59.6241 32.0342 60.2179C31.7899 60.8116 31.6649 61.4477 31.6664 62.0898C31.6679 62.7318 31.7959 63.3673 32.0429 63.96C32.29 64.5526 32.6514 65.0907 33.1065 65.5437C33.5616 65.9966 34.1014 66.3555 34.6951 66.5998C35.2889 66.8442 35.925 66.9691 36.567 66.9677C37.2047 66.9702 37.8364 66.8464 38.426 66.6034C39.0155 66.3604 39.551 66.0031 40.0017 65.5521C40.4524 65.1011 40.8093 64.5652 41.0518 63.9755C41.2943 63.3858 41.4176 62.7539 41.4146 62.1163H41.407ZM81.9612 62.1163C81.9582 61.1597 81.6718 60.2254 81.1382 59.4315C80.6045 58.6376 79.8476 58.0196 78.9629 57.6556C78.0783 57.2916 77.1056 57.1979 76.1677 57.3864C75.2299 57.5748 74.3689 58.037 73.6935 58.7145C73.0182 59.3919 72.5587 60.2544 72.3732 61.1928C72.1877 62.1313 72.2844 63.1036 72.6512 63.9871C73.0179 64.8706 73.6383 65.6257 74.4339 66.1568C75.2295 66.688 76.1646 66.9714 77.1212 66.9714C77.7574 66.9735 78.3876 66.8495 78.9755 66.6066C79.5635 66.3638 80.0975 66.0069 80.5468 65.5565C80.996 65.1062 81.3517 64.5713 81.5932 63.9828C81.8346 63.3943 81.9571 62.7638 81.9536 62.1277L81.9612 62.1163Z" fill="white"/>
<path d="M15.4333 43.5103V36.4873C15.4333 36.1954 15.4333 35.9036 15.4333 35.6117C15.4674 34.7059 16.0056 34.0957 16.7901 34.0957C17.5747 34.0957 18.2228 34.7059 18.2304 35.6345C18.2531 37.9086 18.2304 40.1826 18.2304 42.4567V43.5066H35.8923C36.1548 43.4895 36.4181 43.4895 36.6807 43.5066C37.0168 43.5395 37.3296 43.6933 37.5609 43.9395C37.7923 44.1856 37.9264 44.5074 37.9384 44.8449C37.9505 45.1825 37.8396 45.513 37.6264 45.775C37.4132 46.037 37.1122 46.2127 36.7792 46.2695C36.5196 46.3082 36.2565 46.3184 35.9946 46.2999C28.0733 46.2999 20.152 46.2999 12.2306 46.2999C12.0866 46.2999 11.9388 46.2999 11.7948 46.2999C10.8852 46.2468 10.328 45.7086 10.328 44.8937C10.328 44.0789 10.8889 43.5217 11.7986 43.5028C12.9735 43.4952 14.1371 43.5103 15.4333 43.5103Z" fill="white"/>
</svg>
