<svg width="20" height="22" viewBox="0 0 20 22" fill="none" xmlns="http://www.w3.org/2000/svg">
<path d="M19.5 7.5c-.225-1.675-.883-2.98-2.058-4.158C15.93 2.217 14.625 1.559 12.95 1.334 11.225 1.109 8.775 1.109 7.05 1.334 5.375 1.559 4.07 2.217 2.892 3.342 1.717 4.517 1.059 5.822.834 7.497.609 9.222.609 11.672.834 13.397c.225 1.675.883 2.98 2.058 4.158 1.178 1.125 2.483 1.783 4.158 2.008 1.725.225 4.175.225 5.9 0 1.675-.225 2.98-.883 4.158-2.008 1.175-1.178 1.833-2.483 2.058-4.158.225-1.725.225-4.175 0-5.9zM8.5 14.5V8.5l5 3-5 3z" fill="#000"/>
</svg>
